<svg width="125" height="125" fill="none" xmlns="http://www.w3.org/2000/svg"><path d="M19.848 61.411c0-1.02.827-1.847 1.848-1.847h82.408c1.021 0 1.848.827 1.848 1.847v14.413c0 1.02-.827 1.847-1.848 1.847H21.695a1.848 1.848 0 0 1-1.847-1.847V61.41Z" fill="#8E7958"/><path d="M107.163 79.731c.23-1.082-.636-2.06-1.743-2.06H19.78c-1.107 0-1.972.978-1.743 2.06C21.37 95.463 40.052 95.04 62.6 95.04c22.548 0 41.231.424 44.563-15.308Z" fill="#F1DDA8"/><path d="M91.979 92.89c-8.25-.275-18.472-.437-29.542-.437-11.09 0-21.328.163-29.585.438 7.506 1.789 17.196 1.784 27.83 1.779h.002a3300.196 3300.196 0 0 1 3.457 0h.001c10.637.005 20.33.01 27.837-1.78Z" fill="#EBD9A8"/><path d="M67.577 74.377a10.347 10.347 0 0 1-9.354 0L21.695 55.868 62.9 59.194l41.204-3.326-36.527 18.51Z" fill="#FBCB4F"/><path d="M107.437 57.476c.232 1.096-.635 2.088-1.755 2.088H20.117c-1.12 0-1.986-.992-1.754-2.088C21.982 40.418 40.545 30 62.9 30s40.918 10.418 44.537 27.476Z" fill="#F1DDA8"/><path d="M79.486 44.663c.667 1.104.958 2.183.65 2.409-.309.226-1.1-.486-1.767-1.59-.667-1.104-.958-2.183-.65-2.409.309-.226 1.1.486 1.767 1.59ZM63.443 45.336c0 1.327-.3 2.402-.67 2.402-.371 0-.671-1.075-.671-2.402 0-1.326.3-2.402.67-2.402.37 0 .671 1.076.671 2.402ZM47.236 45.746c-.668 1.104-1.458 1.816-1.767 1.59-.308-.227-.017-1.305.65-2.41.667-1.104 1.458-1.815 1.767-1.59.308.227.017 1.306-.65 2.41Z" fill="#F4F4CF"/></svg>
