<svg width="125" height="125" fill="none" xmlns="http://www.w3.org/2000/svg"><path d="M10.86 84.725c-1.688 0-3.056-1.393-2.854-3.069C10.576 60.402 33.576 38 62.153 38c28.578 0 52.538 22.402 55.195 43.657.21 1.675-1.158 3.068-2.846 3.068H10.86Z" fill="#CDB062"/><path d="M82.5 61c3.703-11.263-7.728-15.38 5.899-12.605 13.517 2.753 22.851 13.88 22.028 25.59L82.5 61Z" fill="#B1DB59"/><path d="M31.549 55.816c3.703-11.263 16.745-17.983 30.373-15.209 13.517 2.753 22.85 13.88 22.028 25.59l-52.401-10.38Z" fill="#B1DB59"/><path d="M47.903 51.88c5.83-10.325 19.932-14.371 32.756-8.991C93.379 48.226 100.092 57.175 97 68.5L47.903 51.88Z" fill="#B8E160"/><path d="M16.682 80.455c-4.435-10.996 1.197-24.544 13.4-31.213 12.105-6.615 26.415-4.133 33.34 5.347l-46.74 25.866Z" fill="#B8E160"/><path d="m59.556 39.004 3.383 2.627-2.388 3.075-3.383-2.626 2.388-3.076ZM72.39 39.842l3.382 2.626-2.388 3.076-3.383-2.627 2.388-3.075Z" fill="#F96443"/><path d="m52.468 39.837 3.371 2.642-2.401 3.065-3.372-2.642 2.402-3.065ZM67.303 39.47l.335 4.27-3.882.305-.335-4.27 3.882-.305Z" fill="#FF927A"/><path d="M8.147 87.84c-.657 0-1.187-.54-1.145-1.197 1.415-21.789 25.255-45.528 55.091-45.528 29.836 0 54.708 23.74 56.159 45.529.044.656-.486 1.196-1.144 1.196H8.148Z" fill="#EBC96E"/><path d="M7.002 86.644a1.133 1.133 0 0 0 1.145 1.196h108.961c.658 0 1.188-.54 1.144-1.196a31.884 31.884 0 0 0-.296-2.698H7.29c-.133.901-.23 1.801-.288 2.698Z" fill="#E4C36D"/><path d="M8.147 87.84c-.657 0-1.187-.54-1.145-1.197 1.415-21.789 25.255-45.528 55.091-45.528 29.836 0 54.708 23.74 56.159 45.529.044.656-.486 1.196-1.144 1.196H8.148Z" fill="#EBC96E"/></svg>