<svg width="125" height="125" fill="none" xmlns="http://www.w3.org/2000/svg"><path d="M10.86 84.725c-1.688 0-3.056-1.393-2.854-3.069C10.576 60.402 33.576 38 62.153 38c28.578 0 52.538 22.402 55.195 43.657.21 1.675-1.158 3.068-2.846 3.068H10.86Z" fill="#CDB062"/><path d="M58.026 63.604C61.73 52.34 74.772 45.62 88.4 48.395c13.517 2.753 22.851 13.88 22.028 25.59l-52.4-10.381Z" fill="#B1DB59"/><path d="M31.549 55.816c3.703-11.263 16.745-17.983 30.373-15.209 13.517 2.753 22.85 13.88 22.028 25.59l-52.401-10.38Z" fill="#B1DB59"/><path d="M47.903 51.88c5.83-10.325 19.932-14.371 32.756-8.991 12.72 5.337 19.704 18.07 16.612 29.395L47.904 51.88Z" fill="#B8E160"/><path d="M16.682 80.455c-4.435-10.996 1.197-24.544 13.4-31.213 12.105-6.615 26.415-4.133 33.34 5.347l-46.74 25.866Z" fill="#B8E160"/><path d="m31.54 47.514 4.164-1.007.915 3.784-4.163 1.007-.915-3.784ZM44.208 41.788l4.132 1.128-1.026 3.756-4.132-1.128 1.026-3.756ZM57.689 39.168l3.383 2.627-2.388 3.075-3.383-2.626 2.388-3.076ZM86.113 44.62l3.383 2.626-2.388 3.076-3.383-2.627 2.388-3.076ZM69.62 40.336l4.115 1.189-1.08 3.74-4.115-1.188 1.08-3.74Z" fill="#F96443"/><path d="m39.436 43.324 3.371 2.642-2.402 3.064-3.371-2.642 2.402-3.064ZM53.731 39.947l.335 4.27-3.882.304-.334-4.27 3.881-.304ZM80.598 42.283l.335 4.27-3.882.305-.335-4.27 3.882-.305ZM94.616 48.903l.335 4.27-3.882.304-.335-4.27 3.882-.304ZM66.191 39.557l.335 4.27-3.882.305-.334-4.27 3.881-.305Z" fill="#FF927A"/><path d="M8.147 87.84c-.657 0-1.187-.54-1.145-1.197 1.415-21.789 25.255-45.528 55.091-45.528 29.836 0 54.708 23.74 56.159 45.529.044.656-.486 1.196-1.144 1.196H8.148Z" fill="#EBC96E"/><path d="M7.002 86.644a1.133 1.133 0 0 0 1.145 1.196h108.961c.658 0 1.188-.54 1.144-1.196a31.884 31.884 0 0 0-.296-2.698H7.29c-.133.901-.23 1.801-.288 2.698Z" fill="#E4C36D"/><path d="M22.012 80.283c0 1.593.62 2.885-.943 2.885s-2.83-1.292-2.83-2.885c0-1.593.743-.824 2.306-.824.733.103 1.467-.769 1.467.824ZM50.047 63.15c0 1.594.62 2.885-.943 2.885s-2.83-1.291-2.83-2.884.743-.824 2.306-.824c.733.103 1.467-.77 1.467.824ZM62.598 81.954c-1.186 1.064-1.734 2.387-2.777 1.224-1.043-1.164-.928-2.97.258-4.033 1.186-1.063 1.11.003 2.153 1.167.413.615 1.552.579.366 1.642ZM105.957 77.061c-.521 1.506-.357 2.929-1.834 2.418-1.477-.51-2.252-2.145-1.731-3.65.52-1.506.971-.537 2.448-.026.66.337 1.638-.247 1.117 1.258ZM51.047 75.232c-.624 1.466-.559 2.897-1.997 2.285-1.438-.612-2.098-2.296-1.475-3.761.623-1.466 1.006-.468 2.444.144.635.381 1.651-.134 1.028 1.332ZM80.155 55.811c.142 1.587.874 2.818-.682 2.957-1.557.139-2.933-1.034-3.075-2.621-.142-1.587.666-.887 2.223-1.026.74.037 1.392-.897 1.534.69Z" fill="#E4C26B"/><path d="M90.201 70.777c-.623 1.466-.558 2.896-1.996 2.285-1.438-.612-2.099-2.296-1.475-3.762.623-1.466 1.006-.467 2.444.144.635.382 1.651-.133 1.027 1.333Z" fill="#EED289"/><path d="M97.203 80.217c.257 1.572 1.078 2.746-.464 3-1.542.252-3.001-.817-3.26-2.389-.257-1.572.6-.933 2.142-1.186.74-.017 1.324-.997 1.582.575ZM27.515 73.012c-1.92-.757-3.738-.707-3.076-2.384.662-1.676 2.754-2.421 4.674-1.663 1.92.757.678 1.188.016 2.865-.434.738.305 1.94-1.614 1.182ZM36.682 79.337c-1.841.931-3.012 2.324-3.825.715-.813-1.609.02-3.667 1.862-4.598s1.34.283 2.153 1.891c.262.816 1.652 1.061-.19 1.992Z" fill="#E4C26B"/><path d="M63.254 59.217c-1.842.931-3.013 2.324-3.826.715-.813-1.609.02-3.668 1.862-4.599 1.842-.93 1.34.283 2.153 1.892.262.815 1.652 1.06-.19 1.992ZM68.609 70.595c-.798-1.904-2.104-3.17-.441-3.867 1.662-.697 3.657.281 4.454 2.185.798 1.903-.377 1.315-2.04 2.012-.832.204-1.175 1.573-1.973-.33ZM33.945 61.189c1.161.458 2.26.434 1.865 1.433-.395.998-1.656 1.436-2.817.978-1.162-.459-.414-.712-.02-1.71.26-.44-.19-1.16.972-.701ZM79.112 77.695c1.162.458 2.26.434 1.865 1.433-.394.999-1.655 1.437-2.817.978-1.161-.458-.413-.712-.019-1.71.26-.44-.19-1.16.971-.701ZM51.467 49.27c1.161.459 2.259.435 1.865 1.434-.395.998-1.656 1.436-2.817.978-1.162-.459-.414-.712-.02-1.71.26-.44-.19-1.16.972-.702ZM96.634 61.73c1.162.459 2.26.435 1.865 1.434-.394.998-1.655 1.436-2.817.978-1.161-.459-.413-.712-.019-1.71.26-.44-.19-1.16.971-.702ZM57.697 68.74c1.161.458 2.259.434 1.865 1.432-.395 1-1.656 1.437-2.817.979-1.162-.459-.414-.712-.02-1.711.26-.44-.19-1.16.972-.7Z" fill="#EED289"/></svg>